<svg xmlns="http://www.w3.org/2000/svg" width="115" height="31" fill="none" viewBox="0 0 115 31"><path fill="#FA7040" d="M108.211 5.897h-5.669l7.248 8.846-7.248 8.847h5.669L115 14.743zm-24.759 0h5.672l-7.245 8.846 7.245 8.847h-5.672l-6.786-8.847zm-76.663 0h5.67l-7.25 8.846 7.25 8.847h-5.67L0 14.743zM46.05 18.721q-1.236 1.356-3.225 1.356-1.306 0-2.302-.615a4.24 4.24 0 0 1-1.56-1.705q-.565-1.096-.565-2.543c0-.964.188-1.778.565-2.507s.895-1.302 1.56-1.706q.996-.614 2.302-.614c.87 0 1.671.205 2.343.614q.996.614 1.56 1.706.565 1.095.565 2.507 0 2.151-1.236 3.507zm.984-10.745a6.2 6.2 0 0 0-1.707-1.301c-.99-.519-2.12-.778-3.374-.778-1.595 0-3.037.41-4.315 1.224-1.283.82-2.284 1.928-3.008 3.338s-1.09 3.007-1.09 4.79c0 1.785.366 3.345 1.09 4.756.724 1.41 1.73 2.525 3.008 3.344 1.284.82 2.72 1.224 4.315 1.224q1.881.001 3.374-.802a6.5 6.5 0 0 0 1.707-1.314v1.736h4.715V6.259h-4.715zm18.2 11.653c-.64.282-1.357.427-2.156.427q-1.303 0-2.332-.614a4.4 4.4 0 0 1-1.628-1.702q-.6-1.093-.599-2.502c0-.938.2-1.798.6-2.502q.597-1.054 1.627-1.666 1.029-.614 2.332-.614c.77 0 1.48.139 2.115.41q.959.407 1.645 1.184l3.043-3.152a8.75 8.75 0 0 0-3.002-2.225q-1.737-.776-3.801-.776-2.644.001-4.794 1.24c-1.44.83-2.567 1.942-3.384 3.355q-1.234 2.112-1.234 4.782c0 1.78.411 3.338 1.234 4.746a9 9 0 0 0 3.366 3.332c1.422.817 3.026 1.22 4.812 1.22q2.064 0 3.801-.775a9.2 9.2 0 0 0 3.079-2.262l-3.079-3.151a4.6 4.6 0 0 1-1.645 1.238"/><path fill="#FA7040" d="M76.667 14.487V0h-4.792v23.59h4.792v-8.163M98.29 0h-4.92v6.026h-4.245v4.184h4.244v13.38h4.922V10.21h4.25V6.026h-4.25zM26.202 17.92a4.25 4.25 0 0 1-1.579 1.736q-1.014.624-2.32.623-1.306 0-2.302-.623c-.666-.415-1.184-.99-1.561-1.735q-.565-1.11-.565-2.578c0-.978.188-1.803.565-2.542.377-.74.901-1.32 1.578-1.729q1.014-.623 2.285-.623c.848 0 1.643.208 2.32.623q1.015.622 1.578 1.73c.377.738.566 1.588.566 2.54 0 .954-.189 1.84-.566 2.579m1.29-10.783c-1.285-.824-2.733-1.24-4.353-1.24q-1.89 0-3.392.825a7 7 0 0 0-1.578 1.185V6.16h-4.752v24.31h4.717v-7.625q.688.688 1.596 1.173c1.013.538 2.15.813 3.41.813 1.619 0 3.073-.416 4.351-1.24 1.284-.831 2.29-1.956 3.027-3.391q1.105-2.145 1.107-4.82c0-1.785-.37-3.428-1.107-4.858-.736-1.43-1.749-2.56-3.027-3.39"/></svg>